<svg xmlns="http://www.w3.org/2000/svg" fill="none" viewBox="0 0 200 50">
  <path fill="#fff" d="M39.626 19.843L38.66 5.67c-.604.422-1.629.784-3.076.784-2.111 0-5.85-1.629-11.158-1.629C11.278 4.825 0 12.726 0 26.478c0 12.364 9.53 22.497 23.341 22.497 12.726 0 18.335-6.694 18.335-13.269 0-4.162-3.196-6.212-6.272-6.212 0 5.006-3.137 9.65-10.736 9.65-8.203 0-12.605-5.73-12.605-12.606 0-7.539 4.825-12.063 12.665-12.063 6.273 0 10.736 2.292 14.174 5.49l.724-.122zM75.6 47.287c-1.328-.845-1.991-3.137-1.991-7.057v-11.4c0-10.132-7.057-15.018-16.285-15.018-8.082 0-12.364 3.197-12.364 7.54 0 2.713 2.292 4.402 5.006 4.402.603-1.689 2.413-3.438 6.212-3.438 4.403 0 6.876 2.473 6.876 6.575v.18c-1.99-.964-4.343-1.688-6.996-1.688-8.022 0-12.847 4.282-12.847 10.314 0 5.79 4.644 11.158 12.847 11.158 3.92 0 6.694-1.267 8.685-3.378 1.508 2.172 3.8 3.378 6.453 3.378 2.111 0 3.74-.543 4.463-.905l-.06-.663zM63.053 35.525c-.18 3.498-2.774 5.248-5.79 5.248-2.594 0-4.282-1.327-4.282-3.318 0-1.93 1.81-3.317 4.282-3.317 2.533 0 4.162.603 5.79 1.387zM91.966 48.01v-.663c-1.629-1.086-2.111-2.895-2.111-6.514l.06-39.989C86.356 3.197 81.411 5.79 77.189 5.79v.664c1.267.904 2.11 2.533 2.11 6.152v28.227c0 3.619-.844 5.61-2.11 6.514v.663h14.777zm23.652.06l10.555-26.055c1.447-3.62 2.653-5.428 3.498-6.514v-.664H116.1v.664c1.327 1.086 1.387 2.895.121 6.514l-4.644 13.028-4.644-13.028c-1.327-3.62-1.207-5.428.12-6.514v-.664H91.975v.664c1.267 1.086 2.352 2.895 3.8 6.514L106.33 48.01h9.227l.061.06zm29.189-41.918c0-3.438-2.835-6.152-6.212-6.152a6.139 6.139 0 00-6.152 6.152 6.139 6.139 0 006.152 6.152c3.377 0 6.212-2.714 6.212-6.152zm1.447 41.858v-.603c-1.628-1.085-2.11-2.955-2.11-6.574V14.837h-12.666v.604c1.266.904 2.111 2.955 2.111 6.574v18.818c0 3.619-.724 5.61-2.111 6.574v.603h14.776zm37.525 0v-.663c-1.629-1.086-2.111-2.895-2.111-6.514 0-.965.06-7.057.06-12.304 0-8.565-4.584-14.536-12.967-14.536-3.981 0-7.117 1.75-9.349 4.343-1.327-2.775-3.739-4.343-6.936-4.343-1.749 0-3.438.543-4.403.844v.664c1.267.905 2.111 2.895 2.111 6.514v18.818c0 3.619-.724 5.549-2.111 6.514v.663h14.777v-.663c-1.628-1.086-2.111-2.895-2.111-6.514V29.554c0-3.74 2.473-5.91 5.187-5.91 2.895 0 5.187 2.05 5.187 5.669v11.52c0 3.619-.845 5.61-2.111 6.514v.663h14.777zm8.742 1.388c4.101 0 7.479-3.318 7.479-7.48 0-4.161-3.378-7.478-7.479-7.478-4.161 0-7.539 3.317-7.539 7.479 0 4.161 3.378 7.479 7.539 7.479z"/>
</svg>
